PathFileType	4	(X/Y/Z)	E:\Qualisys_Data\Carbon_Farble_Plate\Data\Amateur_Runner\S14\T1\S14T1V21_c3d.trc
DataRate	CameraRate	NumFrames	NumMarkers	Units	OrigDataRate	OrigDataStartFrame	OrigNumFrames
200.000000	200.000000	4	39	mm	200.000000	0	306
Frame#	Time	LSHO			RSHO			LICST			RICST			LASIS			LHEEL			RASIS			LTROC			RTROC			SACR			LTH1			LSK4			LTH2			LTH3			RHM5			LSK2			LTH4			RTH1			LTOE			RTH2			RTH3			RTH4			LLEP			RLEP			LSK1			LSK3			RSK1			LHM5			RSK2			LFT1			RSK3			RSK4			LLME			RLME			RTOE			RHEEL			RFT1			RFT2			LFT2			
		X1	Y1	Z1	X2	Y2	Z2	X3	Y3	Z3	X4	Y4	Z4	X5	Y5	Z5	X6	Y6	Z6	X7	Y7	Z7	X8	Y8	Z8	X9	Y9	Z9	X10	Y10	Z10	X11	Y11	Z11	X12	Y12	Z12	X13	Y13	Z13	X14	Y14	Z14	X15	Y15	Z15	X16	Y16	Z16	X17	Y17	Z17	X18	Y18	Z18	X19	Y19	Z19	X20	Y20	Z20	X21	Y21	Z21	X22	Y22	Z22	X23	Y23	Z23	X24	Y24	Z24	X25	Y25	Z25	X26	Y26	Z26	X27	Y27	Z27	X28	Y28	Z28	X29	Y29	Z29	X30	Y30	Z30	X31	Y31	Z31	X32	Y32	Z32	X33	Y33	Z33	X34	Y34	Z34	X35	Y35	Z35	X36	Y36	Z36	X37	Y37	Z37	X38	Y38	Z38	X39	Y39	Z39	

1	0	-2841.74169921875	1497.625244140625	-477.2156372070312	-2876.09619140625	1499.999633789062	-186.2092437744141	-2888.48193359375	1051.70654296875	-464.34619140625	-2871.932861328125	1045.45263671875	-191.8013610839844	-2854.55517578125	995.7066650390625	-442.4405517578125	-3477.230712890625	455.9588012695312	-340.08544921875	-2846.7353515625	1003.10107421875	-213.2389068603516	-3019.653564453125	954.2357177734375	-480.6027526855469	-2986.644287109375	949.258056640625	-161.4568176269531	-3018.331787109375	1060.770629882812	-330.7101440429688	-3022.03173828125	722.5746459960938	-490.3440856933594	-3324.553466796875	533.585693359375	-424.9460144042969	-3091.1962890625	749.9749145507812	-460.1260375976562	-3048.5712890625	626.8259887695312	-471.4125061035156	-2542.403076171875	172.3641815185547	-164.9179992675781	-3238.72412109375	579.6585693359375	-446.0331726074219	-3119.3427734375	655.9217529296875	-444.6400756835938	-2780.597412109375	746.3397216796875	-164.2476806640625	-3484.199951171875	203.6004180908203	-401.9169006347656	-2853.620361328125	721.5621948242188	-150.9216613769531	-2747.293212890625	654.9796142578125	-192.2766571044922	-2824.267578125	625.395751953125	-171.2688903808594	-3112.2353515625	582.2363891601562	-461.1867370605469	-2775.310546875	566.995361328125	-180.1660614013672	-3202.387451171875	507.5391235351562	-460.6981506347656	-3292.572998046875	461.8283081054688	-443.7267456054688	-2722.171875	457.809326171875	-173.0392150878906	-3515.391357421875	277.7621154785156	-445.3638000488281	-2804.901123046875	433.4425048828125	-176.2202453613281	-3496.718017578125	437.5460510253906	-310.221435546875	-2696.65625	358.0113220214844	-183.1196441650391	-2775.565673828125	341.1925048828125	-185.8403167724609	-3463.44921875	418.2742004394531	-409.4032287597656	-2685.915283203125	175.1954803466797	-200.8128662109375	-2480.44775390625	219.9353942871094	-220.8429260253906	-2731.960205078125	126.1863174438477	-255.277587890625	-2692.579833984375	107.6073913574219	-287.1429138183594	-2709.124267578125	102.9189376831055	-231.0691223144531	-3512.03466796875	454.4555358886719	-360.664306640625
2	0.005	-2822.078857421875	1496.141357421875	-476.9613037109375	-2856.123291015625	1498.619995117188	-185.9265747070312	-2868.236328125	1050.207885742188	-464.3245544433594	-2852.901611328125	1042.69677734375	-192.0834197998047	-2834.1201171875	995.1387939453124	-442.6418762207031	-3478.72607421875	472.6094360351562	-341.3407897949219	-2827.389892578125	1000.112182617188	-214.5317993164062	-2998.50634765625	951.8689575195312	-481.3023376464844	-2965.6591796875	946.2045288085938	-161.5283050537109	-2997.998779296875	1057.896484375	-330.1154174804688	-2998.8203125	719.8318481445312	-491.1445617675781	-3301.404541015625	537.3465576171875	-425.9396362304688	-3068.4462890625	747.3832397460938	-461.4506225585938	-3024.414794921875	624.7986450195312	-472.0413818359375	-2517.833251953125	174.4101867675781	-165.0281219482422	-3214.142333984375	580.2543334960938	-447.4888610839844	-3095.36279296875	652.5908813476562	-445.2050476074219	-2762.802734375	742.409912109375	-163.5785827636719	-3470.9013671875	213.9406127929688	-401.2896423339844	-2837.307861328125	717.39453125	-150.2788543701172	-2729.848876953125	650.474365234375	-192.2123870849609	-2806.377197265625	622.2650146484375	-170.8900451660156	-3087.8515625	579.2960205078125	-461.9386596679688	-2757.612060546875	563.8027954101562	-180.2061462402344	-3179.873779296875	506.992919921875	-461.1281433105469	-3271.569091796875	464.7210083007812	-443.5097045898438	-2701.568115234375	456.4789123535156	-174.4190979003906	-3499.79833984375	288.5557250976562	-444.5237731933594	-2782.871826171875	430.1475219726562	-176.4241333007812	-3476.7705078125	448.4428405761719	-309.1695861816406	-2675.363525390625	356.0916137695312	-184.0907135009766	-2751.6806640625	337.8674621582031	-186.5532836914062	-3443.08447265625	426.8521728515625	-408.5194396972656	-2660.75048828125	174.0180206298828	-202.5609893798828	-2456.307861328125	223.3522796630859	-220.1392822265625	-2705.93115234375	123.8537826538086	-256.7687072753906	-2664.96484375	106.1805648803711	-288.5222473144531	-2682.19384765625	101.0136489868164	-232.4925842285156	-3490.946044921875	465.0520629882812	-360.1917114257812
3	0.01	-2801.724609375	1493.952514648438	-475.9932250976562	-2835.45751953125	1496.450317382812	-185.3401641845703	-2847.810302734375	1048.081787109375	-464.1859741210938	-2831.531494140625	1040.230224609375	-191.6890106201172	-2813.6279296875	993.334228515625	-442.7117614746094	-3436.78125	477.0172119140625	-338.7352294921875	-2805.817626953125	998.5117797851562	-213.8229064941406	-2977.153076171875	949.1846313476562	-481.8460998535156	-2945.02880859375	943.0455932617188	-161.4314575195312	-2977.818603515625	1055.527954101562	-329.7603149414062	-2974.84814453125	716.9354858398438	-490.5245971679688	-3277.60888671875	541.0455322265625	-426.9096984863281	-3044.876220703125	743.3413696289062	-461.7286987304688	-3000.12255859375	621.3262329101562	-472.6350402832031	-2493.455322265625	174.4875793457031	-165.2651062011719	-3189.077392578125	580.5720825195312	-449.4375305175781	-3071.47265625	648.9418334960938	-446.4857482910156	-2744.709716796875	738.758544921875	-162.7843017578125	-3455.125	225.0844573974609	-398.9103698730469	-2818.934326171875	714.1105346679688	-149.8848876953125	-2711.4072265625	648.126220703125	-192.0756225585938	-2788.469482421875	617.1763305664062	-170.7349243164062	-3063.242919921875	576.3245239257812	-463.1555480957031	-2738.391845703125	560.7183227539062	-180.3372192382812	-3157.059814453125	506.2786560058594	-461.2290649414062	-3250.2080078125	466.6972961425781	-443.6842651367188	-2679.555908203125	454.2534790039062	-175.1240997314453	-3484.073486328125	299.3423767089844	-442.7750549316406	-2761.116455078125	427.2243347167969	-177.2161102294922	-3455.06591796875	459.2674865722656	-308.6036682128906	-2652.18359375	355.0779724121094	-184.6779327392578	-2728.679443359375	335.9560241699219	-187.94677734375	-3423.030517578125	436.1364135742188	-408.356201171875	-2636.488525390625	172.999267578125	-203.8118286132812	-2432.248291015625	225.0149536132812	-219.3974609375	-2679.6552734375	121.4793853759766	-257.7430114746094	-2639.380859375	105.4846649169922	-290.1911315917969	-2656.573974609375	99.2099380493164	-234.7324981689453	-3469.40576171875	475.1027526855469	-358.2586975097656
4	0.015	-2782.060791015625	1492.203491210938	-475.3736572265625	-2814.869140625	1494.102294921875	-184.3245086669922	-2827.582763671875	1046.385131835938	-464.2341613769531	-2811.97607421875	1037.471435546875	-191.4192504882812	-2792.62353515625	991.3361206054688	-442.4259948730469	-3414.76904296875	487.2322692871094	-338.0357055664062	-2787.000732421875	995.749755859375	-212.9093017578125	-2955.614013671875	945.994384765625	-481.9197998046875	-2923.3701171875	939.9852905273438	-161.0936431884766	-2957.79248046875	1052.40234375	-329.5490417480469	-2951.3466796875	713.5451049804688	-490.5928955078125	-3253.306640625	543.9100952148438	-428.1906127929688	-3021.9541015625	739.4457397460938	-462.5854187011719	-2975.035888671875	617.2130126953125	-472.7522277832031	-2471.44873046875	173.9078063964844	-166.2056579589844	-3163.7412109375	580.4673461914062	-451.3242492675781	-3047.361328125	644.9021606445312	-447.4906311035156	-2727.537841796875	735.58740234375	-162.7548217773438	-3440.745361328125	234.5314788818359	-396.8781433105469	-2802.19140625	710.20556640625	-149.2739410400391	-2693.4189453125	644.9872436523438	-192.2754821777344	-2770.560546875	613.9908447265625	-170.2110137939453	-3037.9169921875	572.4171142578125	-464.242919921875	-2718.5009765625	558.8872680664062	-180.7104644775391	-3133.9912109375	504.7148742675781	-461.7687072753906	-3228.24462890625	468.4630432128906	-443.227294921875	-2659.06494140625	452.4524841308594	-175.4264984130859	-3466.69091796875	310.0264892578125	-441.54931640625	-2740.572265625	424.8958740234375	-178.4632110595703	-3433.546630859375	469.2994689941406	-307.6912536621094	-2631.536376953125	352.8567810058594	-185.4011993408203	-2708.4677734375	333.0289306640625	-188.9291534423828	-3401.784912109375	444.927001953125	-407.5974731445312	-2613.229248046875	171.3969879150391	-204.9188842773438	-2409.900146484375	225.03564453125	-219.2897338867188	-2657.216796875	120.4825897216797	-260.2584228515625	-2615.50439453125	103.9265899658203	-291.9646911621094	-2632.90234375	97.72924041748048	-237.0126495361328	-3447.662353515625	487.7423706054688	-358.9230346679688
